# xmcd CD database file
#
# Track frame offsets:
#	150
#	12710
#	21845
#	33031
#	43177
#	55512
#	64819
#	79398
#	89206
#	102482
#	115368
#	128422
#	141176
#	157020
#	168973
#	179332
#	189119
#	200968
#	213158
#	225692
#	237511
#	245543
#	258859
#	272598
#	283280
#	295973
#
# Disc length: 4126 seconds
#
# Revision: 1
# Processed by: cddbd v1.5.2PL0 Copyright (c) Steve Scherf et al.
# Submitted via: CDex 1.51
#
DISCID=85101c1a
DTITLE=Various Artist - Soul Galore! the Northern Soul Of Brunswick
DYEAR=2012
DGENRE=Soul/R&B
TTITLE0=Jackie Wilson - Soul Galore
TTITLE1=Adams Apples - Don't Take It Out On This World
TTITLE2=The Cooperettes - Shing-A-Ling
TTITLE3=Marvin Smith - Have More Time
TTITLE4=The Artistics - The Chase Is On
TTITLE5=Leroy Taylor - Oh Linda
TTITLE6=Johnny Jones and The King Casuals - Purple Haze
TTITLE7=Billy Butler - Come Over To My Side
TTITLE8=Barbara Acklin - Love Makes A Woman
TTITLE9=Fred Hughes - Baby Boy
TTITLE10=Billy Butler - I'll Bet You
TTITLE11=Chuck Carter - I Can't Help Myself
TTITLE12=Gene Chandler - There Was A Time
TTITLE13=Alvin Valentine - Sweet, Sweet Revenge
TTITLE14=Jackie Wilson - A Lovely Way To Die
TTITLE15=The Artistics - Nothing But Heartaches (Keep Haunting Me)
TTITLE16=The Loreleis - A Strange Way
TTITLE17=The Demures - Raining Teardrops
TTITLE18=Barbara Acklin - Just Ain't No Love
TTITLE19=Sylvia St Claire - Just Love Me
TTITLE20=John Parker - Just A Thing Called Love
TTITLE21=Jackie Wilson - Somebody Up There Likes You
TTITLE22=Erma Franklin - I Get The Sweetest Feeling
TTITLE23=LaVerne Baker - I'm The One To Do It
TTITLE24=Tony Drake - Suddenly
TTITLE25=Young-Holt Unlimited - California Montage
EXTD=YEAR: 2012
EXTT0=
EXTT1=
EXTT2=
EXTT3=
EXTT4=
EXTT5=
EXTT6=
EXTT7=
EXTT8=
EXTT9=
EXTT10=
EXTT11=
EXTT12=
EXTT13=
EXTT14=
EXTT15=
EXTT16=
EXTT17=
EXTT18=
EXTT19=
EXTT20=
EXTT21=
EXTT22=
EXTT23=
EXTT24=
EXTT25=
PLAYORDER=
